<svg width="62" height="62" viewBox="0 0 62 62" fill="none" xmlns="http://www.w3.org/2000/svg">
<rect width="62" height="62" rx="10" fill="#3775ED"/>
<path d="M9.6875 25.1875C9.6875 21.5341 9.6875 19.7074 10.8225 18.5725C11.9574 17.4375 13.7841 17.4375 17.4375 17.4375H44.5625C48.2159 17.4375 50.0426 17.4375 51.1775 18.5725C52.3125 19.7074 52.3125 21.5341 52.3125 25.1875V38.75C52.3125 42.4034 52.3125 44.2301 51.1775 45.365C50.0426 46.5 48.2159 46.5 44.5625 46.5H17.4375C13.7841 46.5 11.9574 46.5 10.8225 45.365C9.6875 44.2301 9.6875 42.4034 9.6875 38.75V25.1875Z" fill="white"/>
<path fill-rule="evenodd" clip-rule="evenodd" d="M15.5 36.8125C15.5 35.7424 16.3674 34.875 17.4375 34.875H32.9375C34.0076 34.875 34.875 35.7424 34.875 36.8125C34.875 37.8826 34.0076 38.75 32.9375 38.75H17.4375C16.3674 38.75 15.5 37.8826 15.5 36.8125Z" fill="#3775ED"/>
<path fill-rule="evenodd" clip-rule="evenodd" d="M38.75 36.8125C38.75 35.7424 39.6174 34.875 40.6875 34.875H44.5625C45.6326 34.875 46.5 35.7424 46.5 36.8125C46.5 37.8826 45.6326 38.75 44.5625 38.75H40.6875C39.6174 38.75 38.75 37.8826 38.75 36.8125Z" fill="#3775ED"/>
<path d="M23.25 27.125C23.25 29.2651 21.5151 31 19.375 31C17.2349 31 15.5 29.2651 15.5 27.125C15.5 24.9849 17.2349 23.25 19.375 23.25C21.5151 23.25 23.25 24.9849 23.25 27.125Z" fill="#3775ED"/>
<path d="M29.0625 27.125C29.0625 29.2651 27.3276 31 25.1875 31C23.0474 31 21.3125 29.2651 21.3125 27.125C21.3125 24.9849 23.0474 23.25 25.1875 23.25C27.3276 23.25 29.0625 24.9849 29.0625 27.125Z" fill="#3775ED"/>
</svg>
