<svg width="62" height="62" viewBox="0 0 62 62" fill="none" xmlns="http://www.w3.org/2000/svg">
<rect width="62" height="62" rx="10" fill="#C96408"/>
<path fill-rule="evenodd" clip-rule="evenodd" d="M48.8668 11.625C48.9039 11.625 48.9411 11.625 48.9785 11.625H52.3125C53.3826 11.625 54.25 12.4925 54.25 13.5625C54.25 14.6326 53.3826 15.5 52.3125 15.5H48.9785C47.4091 15.5 46.408 15.5034 45.6591 15.5954C44.9631 15.6808 44.7189 15.8199 44.5734 15.9392C44.4279 16.0584 44.2436 16.2706 44.0233 16.9363C43.7863 17.6527 43.5867 18.6336 43.2789 20.1726L42.5874 23.63C42.3775 24.6793 41.3568 25.3597 40.3075 25.1499C39.2583 24.94 38.5778 23.9193 38.7876 22.87L39.4791 19.4126C39.4864 19.376 39.4937 19.3395 39.501 19.3031C39.7804 17.9056 40.0238 16.6882 40.3445 15.719C40.6903 14.674 41.1908 13.7015 42.1167 12.9425C43.0425 12.1834 44.0944 11.8834 45.1869 11.7492C46.2001 11.6248 47.4417 11.6249 48.8668 11.625Z" fill="white"/>
<path d="M14.8593 26.4234C15.1636 23.0759 15.3157 21.4022 16.4257 20.3886C17.5356 19.375 19.2162 19.375 22.5774 19.375H43.3642C45.6941 19.375 46.859 19.375 47.4406 20.1364C48.0222 20.8979 47.7157 22.0218 47.1026 24.2696L44.1825 34.9767C43.4335 37.7232 43.0589 39.0965 42.0174 39.892C40.9759 40.6875 39.5525 40.6875 36.7056 40.6875H22.049C18.0809 40.6875 16.0968 40.6875 14.9444 39.4256C13.792 38.1636 13.9716 36.1877 14.3308 32.2358L14.8593 26.4234Z" fill="white"/>
<path d="M40.6875 46.5C40.6875 48.6401 38.9526 50.375 36.8125 50.375C34.6724 50.375 32.9375 48.6401 32.9375 46.5C32.9375 44.3599 34.6724 42.625 36.8125 42.625C38.9526 42.625 40.6875 44.3599 40.6875 46.5Z" fill="white"/>
<path d="M19.375 46.5C19.375 48.6401 17.6401 50.375 15.5 50.375C13.3599 50.375 11.625 48.6401 11.625 46.5C11.625 44.3599 13.3599 42.625 15.5 42.625C17.6401 42.625 19.375 44.3599 19.375 46.5Z" fill="white"/>
<path d="M46.5 46.5C46.5 48.6401 44.7651 50.375 42.625 50.375C40.4849 50.375 38.75 48.6401 38.75 46.5C38.75 44.3599 40.4849 42.625 42.625 42.625C44.7651 42.625 46.5 44.3599 46.5 46.5Z" fill="white"/>
<path fill-rule="evenodd" clip-rule="evenodd" d="M48.4375 46.5C48.4375 49.7102 45.8352 52.3125 42.625 52.3125C39.4148 52.3125 36.8125 49.7102 36.8125 46.5C36.8125 43.2898 39.4148 40.6875 42.625 40.6875C45.8352 40.6875 48.4375 43.2898 48.4375 46.5ZM42.625 50.375C44.7651 50.375 46.5 48.6401 46.5 46.5C46.5 44.3599 44.7651 42.625 42.625 42.625C40.4849 42.625 38.75 44.3599 38.75 46.5C38.75 48.6401 40.4849 50.375 42.625 50.375Z" fill="#C96408"/>
<path d="M25.1875 46.5C25.1875 48.6401 23.4526 50.375 21.3125 50.375C19.1724 50.375 17.4375 48.6401 17.4375 46.5C17.4375 44.3599 19.1724 42.625 21.3125 42.625C23.4526 42.625 25.1875 44.3599 25.1875 46.5Z" fill="white"/>
<path fill-rule="evenodd" clip-rule="evenodd" d="M27.125 46.5C27.125 49.7102 24.5227 52.3125 21.3125 52.3125C18.1023 52.3125 15.5 49.7102 15.5 46.5C15.5 43.2898 18.1023 40.6875 21.3125 40.6875C24.5227 40.6875 27.125 43.2898 27.125 46.5ZM21.3125 50.375C23.4526 50.375 25.1875 48.6401 25.1875 46.5C25.1875 44.3599 23.4526 42.625 21.3125 42.625C19.1724 42.625 17.4375 44.3599 17.4375 46.5C17.4375 48.6401 19.1724 50.375 21.3125 50.375Z" fill="#C96408"/>
</svg>
