<svg width="63" height="62" viewBox="0 0 63 62" fill="none" xmlns="http://www.w3.org/2000/svg">
<rect width="63" height="62" rx="10" fill="#7937BB"/>
<path fill-rule="evenodd" clip-rule="evenodd" d="M43.8891 37.38C44.658 36.6233 45.9045 36.6233 46.6734 37.38L53.564 44.1612C54.3328 44.9179 54.3328 46.1446 53.564 46.9013C52.7951 47.6579 51.5486 47.6579 50.7798 46.9013L43.8891 40.12C43.1203 39.3634 43.1203 38.1366 43.8891 37.38Z" fill="white"/>
<path d="M49.2188 30.0312C49.2188 36.9866 43.4894 42.625 36.4219 42.625C29.3544 42.625 23.625 36.9866 23.625 30.0312C23.625 23.0759 29.3544 17.4375 36.4219 17.4375C43.4894 17.4375 49.2188 23.0759 49.2188 30.0312Z" fill="white"/>
<path fill-rule="evenodd" clip-rule="evenodd" d="M7.875 19.375C7.875 18.3049 8.75644 17.4375 9.84375 17.4375H21.6562C22.7436 17.4375 23.625 18.3049 23.625 19.375C23.625 20.4451 22.7436 21.3125 21.6562 21.3125H9.84375C8.75644 21.3125 7.875 20.4451 7.875 19.375Z" fill="white"/>
<path fill-rule="evenodd" clip-rule="evenodd" d="M7.875 27.125C7.875 26.0549 8.75644 25.1875 9.84375 25.1875H17.7188C18.8061 25.1875 19.6875 26.0549 19.6875 27.125C19.6875 28.1951 18.8061 29.0625 17.7188 29.0625H9.84375C8.75644 29.0625 7.875 28.1951 7.875 27.125Z" fill="white"/>
<path fill-rule="evenodd" clip-rule="evenodd" d="M7.875 34.875C7.875 33.8049 8.75644 32.9375 9.84375 32.9375H17.7188C18.8061 32.9375 19.6875 33.8049 19.6875 34.875C19.6875 35.9451 18.8061 36.8125 17.7188 36.8125H9.84375C8.75644 36.8125 7.875 35.9451 7.875 34.875Z" fill="white"/>
</svg>
