<svg width="16" height="16" viewBox="0 0 16 16" fill="none" xmlns="http://www.w3.org/2000/svg">
<path d="M15.4559 4.92104C15.4475 4.28989 15.3293 3.66502 15.1067 3.07437C14.9137 2.57617 14.6188 2.12371 14.241 1.7459C13.8632 1.36809 13.4108 1.07325 12.9126 0.880208C12.3295 0.661339 11.7135 0.542993 11.0909 0.530208C10.2892 0.494375 10.0351 0.484375 8.00006 0.484375C5.96506 0.484375 5.70423 0.484375 4.90839 0.530208C4.28602 0.543087 3.67035 0.661432 3.08756 0.880208C2.58927 1.07312 2.13674 1.36791 1.75892 1.74574C1.3811 2.12356 1.0863 2.57609 0.893392 3.07437C0.674084 3.65698 0.555995 4.2728 0.544225 4.89521C0.508392 5.69771 0.497559 5.95187 0.497559 7.98687C0.497559 10.0219 0.497559 10.2819 0.544225 11.0785C0.556725 11.7019 0.674225 12.3169 0.893392 12.901C1.08662 13.3992 1.38164 13.8515 1.75959 14.2292C2.13754 14.6068 2.59011 14.9015 3.08839 15.0944C3.66959 15.322 4.28537 15.4489 4.90923 15.4694C5.71173 15.5052 5.96589 15.516 8.00089 15.516C10.0359 15.516 10.2967 15.516 11.0926 15.4694C11.7152 15.4571 12.3312 15.339 12.9142 15.1202C13.4123 14.9269 13.8646 14.632 14.2424 14.2542C14.6202 13.8765 14.9151 13.4241 15.1084 12.926C15.3276 12.3427 15.4451 11.7277 15.4576 11.1035C15.4934 10.3019 15.5042 10.0477 15.5042 8.01187C15.5026 5.97687 15.5026 5.71854 15.4559 4.92104ZM7.99506 11.8352C5.86673 11.8352 4.14256 10.111 4.14256 7.98271C4.14256 5.85437 5.86673 4.13021 7.99506 4.13021C9.01681 4.13021 9.9967 4.5361 10.7192 5.25858C11.4417 5.98106 11.8476 6.96096 11.8476 7.98271C11.8476 9.00445 11.4417 9.98435 10.7192 10.7068C9.9967 11.4293 9.01681 11.8352 7.99506 11.8352ZM12.0009 4.88604C11.8829 4.88615 11.766 4.86299 11.657 4.81788C11.5479 4.77278 11.4489 4.70661 11.3654 4.62317C11.282 4.53973 11.2158 4.44066 11.1707 4.33161C11.1256 4.22257 11.1024 4.10571 11.1026 3.98771C11.1026 3.86979 11.1258 3.75303 11.1709 3.64409C11.216 3.53515 11.2822 3.43616 11.3656 3.35279C11.4489 3.26941 11.5479 3.20327 11.6569 3.15814C11.7658 3.11302 11.8826 3.08979 12.0005 3.08979C12.1184 3.08979 12.2352 3.11302 12.3441 3.15814C12.453 3.20327 12.552 3.26941 12.6354 3.35279C12.7188 3.43616 12.7849 3.53515 12.83 3.64409C12.8752 3.75303 12.8984 3.86979 12.8984 3.98771C12.8984 4.48437 12.4967 4.88604 12.0009 4.88604Z" fill="white"/>
</svg>
